<?xml version="1.0" encoding="utf-8"?>
<!-- Generator: Adobe Illustrator 26.0.2, SVG Export Plug-In . SVG Version: 6.00 Build 0)  -->
<svg version="1.1" id="Capa_1" xmlns="http://www.w3.org/2000/svg" xmlns:xlink="http://www.w3.org/1999/xlink" x="0px" y="0px"
	 viewBox="0 0 56 56" style="enable-background:new 0 0 56 56;" xml:space="preserve">
<style type="text/css">
	.st0{fill:#FF0513;}
</style>
<g>
	<path class="st0" d="M6.5,39v15.5C6.5,55.3,7.2,56,8,56H48c0.8,0,1.5-0.7,1.5-1.5V39H6.5z M18.5,49.7c0.1,0.5,0.3,0.9,0.5,1.2
		c0.2,0.3,0.5,0.5,0.8,0.7c0.3,0.1,0.6,0.2,0.9,0.2s0.6-0.1,0.9-0.2c0.3-0.1,0.5-0.3,0.8-0.6l1.1,1c-0.4,0.4-0.8,0.6-1.3,0.8
		c-0.5,0.2-1,0.3-1.5,0.3c-0.6,0-1.2-0.1-1.7-0.3s-0.9-0.5-1.3-1s-0.7-1-0.9-1.6c-0.2-0.6-0.3-1.4-0.3-2.2s0.1-1.6,0.3-2.2
		c0.2-0.6,0.5-1.2,0.9-1.6s0.8-0.8,1.3-1c0.5-0.2,1.1-0.3,1.7-0.3c0.5,0,1.1,0.1,1.5,0.3c0.5,0.2,0.9,0.5,1.3,0.8l-1.1,1
		c-0.2-0.3-0.5-0.5-0.8-0.6c-0.3-0.1-0.6-0.2-0.9-0.2c-0.3,0-0.7,0.1-1,0.2c-0.3,0.1-0.6,0.3-0.8,0.6c-0.2,0.3-0.4,0.7-0.6,1.2
		c-0.1,0.5-0.2,1.1-0.2,1.8C18.3,48.6,18.3,49.2,18.5,49.7z M31.4,51.3c-0.2,0.3-0.4,0.6-0.6,0.9c-0.3,0.3-0.6,0.5-1,0.6
		c-0.4,0.2-0.9,0.2-1.4,0.2c-0.2,0-0.4,0-0.7,0c-0.2,0-0.5-0.1-0.7-0.1s-0.5-0.1-0.7-0.2s-0.4-0.2-0.6-0.3l0.3-1.2
		c0.1,0.1,0.3,0.1,0.5,0.2s0.4,0.1,0.6,0.2c0.2,0.1,0.4,0.1,0.6,0.1s0.4,0.1,0.6,0.1c0.6,0,1-0.1,1.3-0.4c0.3-0.3,0.4-0.6,0.4-1.2
		c0-0.3-0.1-0.6-0.3-0.8c-0.2-0.2-0.5-0.4-0.8-0.6c-0.3-0.2-0.7-0.4-1-0.5c-0.4-0.2-0.7-0.4-1-0.6c-0.3-0.2-0.6-0.5-0.8-0.9
		c-0.2-0.3-0.3-0.7-0.3-1.2c0-0.4,0.1-0.8,0.2-1.2s0.4-0.6,0.7-0.9c0.3-0.2,0.6-0.4,1-0.6c0.4-0.1,0.8-0.2,1.2-0.2
		c0.4,0,0.8,0,1.3,0.1c0.4,0.1,0.8,0.2,1,0.4c-0.1,0.1-0.1,0.2-0.2,0.4c-0.1,0.1-0.1,0.3-0.2,0.4c-0.1,0.1-0.1,0.2-0.2,0.3
		c0,0.1-0.1,0.1-0.1,0.1c-0.1,0-0.1-0.1-0.2-0.1c-0.1,0-0.2-0.1-0.3-0.1s-0.3-0.1-0.5-0.1c-0.2,0-0.5,0-0.8,0
		c-0.2,0-0.4,0.1-0.5,0.2c-0.2,0.1-0.3,0.2-0.4,0.3s-0.2,0.3-0.3,0.4c-0.1,0.2-0.1,0.3-0.1,0.5c0,0.4,0.1,0.7,0.3,0.9
		c0.2,0.2,0.5,0.4,0.8,0.6c0.3,0.2,0.6,0.3,1,0.5s0.7,0.4,1,0.6s0.6,0.5,0.8,0.9s0.3,0.8,0.3,1.3C31.6,50.6,31.6,51,31.4,51.3z
		 M38.8,51.3c-0.2,0.3-0.4,0.6-0.6,0.9c-0.3,0.3-0.6,0.5-1,0.6c-0.4,0.2-0.9,0.2-1.4,0.2c-0.2,0-0.4,0-0.7,0c-0.2,0-0.5-0.1-0.7-0.1
		s-0.5-0.1-0.7-0.2s-0.4-0.2-0.6-0.3l0.3-1.2c0.1,0.1,0.3,0.1,0.5,0.2c0.2,0.1,0.4,0.1,0.6,0.2c0.2,0.1,0.4,0.1,0.6,0.1
		c0.2,0,0.4,0.1,0.6,0.1c0.6,0,1-0.1,1.3-0.4s0.4-0.6,0.4-1.2c0-0.3-0.1-0.6-0.3-0.8s-0.5-0.4-0.8-0.6c-0.3-0.2-0.7-0.4-1-0.5
		s-0.7-0.4-1-0.6c-0.3-0.2-0.6-0.5-0.8-0.9c-0.2-0.3-0.3-0.7-0.3-1.2c0-0.4,0.1-0.8,0.2-1.2s0.4-0.6,0.7-0.9s0.6-0.4,1-0.6
		s0.8-0.2,1.2-0.2c0.4,0,0.8,0,1.3,0.1c0.4,0.1,0.8,0.2,1,0.4c-0.1,0.1-0.1,0.2-0.2,0.4c-0.1,0.1-0.1,0.3-0.2,0.4
		c-0.1,0.1-0.1,0.2-0.2,0.3c0,0.1-0.1,0.1-0.1,0.1c-0.1,0-0.1-0.1-0.2-0.1c-0.1,0-0.2-0.1-0.3-0.1c-0.1,0-0.3-0.1-0.5-0.1
		s-0.5,0-0.8,0c-0.2,0-0.4,0.1-0.5,0.2c-0.2,0.1-0.3,0.2-0.4,0.3s-0.2,0.3-0.3,0.4c-0.1,0.2-0.1,0.3-0.1,0.5c0,0.4,0.1,0.7,0.3,0.9
		c0.2,0.2,0.5,0.4,0.8,0.6c0.3,0.2,0.6,0.3,1,0.5s0.7,0.4,1,0.6s0.6,0.5,0.8,0.9c0.2,0.3,0.3,0.8,0.3,1.3C39,50.6,39,51,38.8,51.3z"
		/>
	<g>
		<path class="st0" d="M19.5,19v-4c0-0.6,0.4-1,1-1c0.6,0,1-0.4,1-1s-0.4-1-1-1c-1.7,0-3,1.3-3,3v4c0,1.1-0.9,2-2,2
			c-0.6,0-1,0.4-1,1s0.4,1,1,1c1.1,0,2,0.9,2,2v4c0,1.7,1.3,3,3,3c0.6,0,1-0.4,1-1s-0.4-1-1-1c-0.6,0-1-0.4-1-1v-4
			c0-1.2-0.5-2.3-1.4-3C19,21.3,19.5,20.2,19.5,19z"/>
		<path class="st0" d="M39.5,21c-1.1,0-2-0.9-2-2v-4c0-1.7-1.3-3-3-3c-0.6,0-1,0.4-1,1s0.4,1,1,1c0.6,0,1,0.4,1,1v4
			c0,1.2,0.5,2.3,1.4,3c-0.8,0.7-1.4,1.8-1.4,3v4c0,0.6-0.4,1-1,1c-0.6,0-1,0.4-1,1s0.4,1,1,1c1.7,0,3-1.3,3-3v-4c0-1.1,0.9-2,2-2
			c0.6,0,1-0.4,1-1S40.1,21,39.5,21z"/>
	</g>
</g>
</svg>
