<?xml version="1.0" encoding="utf-8"?>
<!-- Generator: Adobe Illustrator 26.0.2, SVG Export Plug-In . SVG Version: 6.00 Build 0)  -->
<svg version="1.1" id="Layer_1" xmlns="http://www.w3.org/2000/svg" xmlns:xlink="http://www.w3.org/1999/xlink" x="0px" y="0px"
	 viewBox="0 0 303.2 303.2" style="enable-background:new 0 0 303.2 303.2;" xml:space="preserve">
<style type="text/css">
	.st0{fill:none;}
	.st1{fill:#FF0513;}
</style>
<polygon class="st0" points="217.9,0 31,0 31,303.2 268.5,303.2 268.5,50.5 "/>
<g>
	<path class="st1" d="M124.2,154.7L75.3,133v-8.3l48.9-24.5v14.4l-30,13.7l30,12.2L124.2,154.7L124.2,154.7z"/>
	<path class="st1" d="M171.5,91.5l-26.4,72.7h-16.7l26.4-72.7H171.5z"/>
	<path class="st1" d="M175.2,140.4l30-12.2l-30-13.7v-14.4l48.9,24.5v8.3l-48.9,21.7L175.2,140.4L175.2,140.4z"/>
</g>
<g>
	<path class="st1" d="M103.1,273.9H91.5v-17.5H78.1v17.5H66.4V231H78v15.9h13.4V231H103C103.1,231,103.1,273.9,103.1,273.9z"/>
	<path class="st1" d="M131.3,273.9h-11.6v-33.4h-10.5V231h32.5v9.5h-10.4L131.3,273.9L131.3,273.9z"/>
	<path class="st1" d="M166.5,273.9l-8.8-30.9h-0.3c0.4,5.3,0.6,9.3,0.6,12.2v18.6h-10.3V231h15.4l8.9,30.4h0.2L181,231h15.4v42.8
		H186V255c0-1,0-2.1,0-3.3s0.2-4.1,0.4-8.8h-0.3l-8.6,30.8L166.5,273.9L166.5,273.9z"/>
	<path class="st1" d="M205.9,273.9V231h11.6v33.5H234v9.3h-28.1V273.9z"/>
</g>
</svg>
