<?xml version="1.0" encoding="utf-8"?>
<!-- Generator: Adobe Illustrator 26.0.2, SVG Export Plug-In . SVG Version: 6.00 Build 0)  -->
<svg version="1.1" id="Capa_1" xmlns="http://www.w3.org/2000/svg" xmlns:xlink="http://www.w3.org/1999/xlink" x="0px" y="0px"
	 viewBox="0 0 56 56" style="enable-background:new 0 0 56 56;" xml:space="preserve">
<style type="text/css">
	.st0{fill:none;}
	.st1{fill:#FF0513;}
</style>
<g>
	<path class="st0" d="M37,0H8C7.2,0,6.5,0.7,6.5,1.9V55c0,0.3,0.7,1,1.5,1H48c0.8,0,1.5-0.7,1.5-1V13c0-0.7-0.1-0.9-0.3-1.1
		L37.6,0.3C37.4,0.1,37.2,0,37,0z"/>
	<polygon class="st0" points="37.5,0.2 37.5,12 49.3,12 	"/>
	<path class="st0" d="M48,56H8c-0.8,0-1.5-0.7-1.5-1.5V39h43v15.5C49.5,55.3,48.8,56,48,56z"/>
	<g>
		<path class="st1" d="M26,42.7v7.8c0,0.5-0.1,0.9-0.3,1.2c-0.2,0.3-0.4,0.6-0.7,0.8c-0.3,0.2-0.6,0.3-1,0.4s-0.8,0.1-1.2,0.1
			c-0.2,0-0.4,0-0.7-0.1s-0.5-0.1-0.8-0.2s-0.6-0.2-0.8-0.3c-0.3-0.1-0.5-0.2-0.7-0.4l0.7-1.1c0.1,0.1,0.2,0.1,0.4,0.2
			s0.4,0.1,0.6,0.2c0.2,0.1,0.4,0.1,0.6,0.2s0.4,0.1,0.6,0.1c0.5,0,0.9-0.1,1.2-0.3s0.4-0.5,0.5-1v-7.7L26,42.7L26,42.7z"/>
		<path class="st1" d="M34.2,50.2c0,0.4-0.1,0.7-0.2,1.1s-0.4,0.6-0.6,0.9s-0.6,0.5-1,0.6c-0.4,0.2-0.9,0.2-1.4,0.2
			c-0.2,0-0.4,0-0.7,0s-0.5-0.1-0.7-0.1c-0.2-0.1-0.5-0.1-0.7-0.2s-0.4-0.2-0.6-0.3l0.3-1.2c0.1,0.1,0.3,0.1,0.5,0.2
			s0.4,0.1,0.6,0.2c0.2,0.1,0.4,0.1,0.6,0.1c0.2,0,0.4,0.1,0.6,0.1c0.6,0,1-0.1,1.3-0.4s0.4-0.6,0.4-1.2c0-0.3-0.1-0.6-0.3-0.8
			c-0.2-0.2-0.5-0.4-0.8-0.6s-0.7-0.4-1-0.5c-0.4-0.2-0.7-0.4-1-0.6c-0.3-0.2-0.6-0.5-0.8-0.9c-0.2-0.3-0.3-0.7-0.3-1.2
			c0-0.4,0.1-0.8,0.2-1.2s0.4-0.6,0.7-0.9s0.6-0.4,1-0.6s0.8-0.2,1.2-0.2c0.4,0,0.8,0,1.3,0.1s0.8,0.2,1,0.4
			c-0.1,0.1-0.1,0.2-0.2,0.4c-0.1,0.1-0.1,0.3-0.2,0.4c-0.1,0.1-0.1,0.2-0.2,0.3c0,0.1-0.1,0.1-0.1,0.1c-0.1,0-0.1-0.1-0.2-0.1
			s-0.2-0.1-0.3-0.1c-0.1,0-0.3-0.1-0.5-0.1c-0.2,0-0.5,0-0.8,0c-0.2,0-0.4,0.1-0.5,0.2s-0.3,0.2-0.4,0.3c-0.1,0.1-0.2,0.3-0.3,0.4
			C30,45.2,30,45.4,30,45.5c0,0.4,0.1,0.7,0.3,0.9c0.2,0.2,0.5,0.4,0.8,0.6c0.3,0.2,0.6,0.3,1,0.5c0.4,0.2,0.7,0.4,1,0.6
			s0.6,0.5,0.8,0.9C34.1,49.3,34.2,49.7,34.2,50.2z"/>
	</g>
	<g>
		<path class="st1" d="M19.5,19v-4c0-0.6,0.4-1,1-1c0.6,0,1-0.4,1-1s-0.4-1-1-1c-1.7,0-3,1.3-3,3v4c0,1.1-0.9,2-2,2
			c-0.6,0-1,0.4-1,1s0.4,1,1,1c1.1,0,2,0.9,2,2v4c0,1.7,1.3,3,3,3c0.6,0,1-0.4,1-1s-0.4-1-1-1c-0.6,0-1-0.4-1-1v-4
			c0-1.2-0.5-2.3-1.4-3C19,21.3,19.5,20.2,19.5,19z"/>
		<circle class="st1" cx="27.5" cy="18.5" r="1.5"/>
		<path class="st1" d="M39.5,21c-1.1,0-2-0.9-2-2v-4c0-1.7-1.3-3-3-3c-0.6,0-1,0.4-1,1s0.4,1,1,1c0.6,0,1,0.4,1,1v4
			c0,1.2,0.5,2.3,1.4,3c-0.8,0.7-1.4,1.8-1.4,3v4c0,0.6-0.4,1-1,1c-0.6,0-1,0.4-1,1s0.4,1,1,1c1.7,0,3-1.3,3-3v-4c0-1.1,0.9-2,2-2
			c0.6,0,1-0.4,1-1S40.1,21,39.5,21z"/>
		<path class="st1" d="M27.5,24c-0.6,0-1,0.4-1,1v3c0,0.6,0.4,1,1,1s1-0.4,1-1v-3C28.5,24.4,28.1,24,27.5,24z"/>
	</g>
</g>
</svg>
