<?xml version="1.0" encoding="utf-8"?>
<!-- Generator: Adobe Illustrator 26.0.2, SVG Export Plug-In . SVG Version: 6.00 Build 0)  -->
<svg version="1.1" id="Layer_1" xmlns="http://www.w3.org/2000/svg" xmlns:xlink="http://www.w3.org/1999/xlink" x="0px" y="0px"
	 viewBox="0 0 512 512" style="enable-background:new 0 0 512 512;" xml:space="preserve">
<style type="text/css">
	.st0{fill:#FF0513;}
	.st1{fill:none;stroke:#FF0513;stroke-width:18;}
</style>
<circle class="st0" cx="256" cy="256" r="36"/>
<path class="st1" d="M317.5,291.4c49-88.3,59.5-172.7,23.4-188.5c-36.1-15.8-105.1,42.9-154.1,131.2s-59.5,172.7-23.4,188.5
	C199.4,438.5,268.4,379.8,317.5,291.4L317.5,291.4z M194.6,291.5c49.1,88.3,118.1,146.9,154.1,131c36.1-15.9,25.5-100.4-23.5-188.6
	S207.1,87,171,102.9C135,118.8,145.5,203.2,194.6,291.5L194.6,291.5z M256,326.9c101.1,0,183-31.8,182.9-71s-82-71-183-71
	C154.9,185,73,216.8,73,256c0,39.2,81.9,71,182.9,71H256z"/>
</svg>
