<?xml version="1.0" encoding="utf-8"?>
<!-- Generator: Adobe Illustrator 26.0.2, SVG Export Plug-In . SVG Version: 6.00 Build 0)  -->
<svg version="1.1" id="Layer_1" xmlns="http://www.w3.org/2000/svg" xmlns:xlink="http://www.w3.org/1999/xlink" x="0px" y="0px"
	 viewBox="0 0 512 512" style="enable-background:new 0 0 512 512;" xml:space="preserve">
<style type="text/css">
	.st0{fill:#FF0513;}
</style>
<g>
	<path class="st0" d="M261,229.7c-15.7,0-31.2,10.3-31.2,30.7c0,15.5,13.2,30.2,31.2,30.2c4.6,0,9.1-1.2,13.6-2.3L260,274.8
		c-6.8-8.2,4-19.8,12.5-12.3L287,277c3.2-4.5,4.6-10,4.6-16.6C291.6,240,275.6,229.7,261,229.7z"/>
	<path class="st0" d="M433.8,160h-352c-8.8,0-16,7.2-16,16v160c0,8.8,7.2,16,16,16h352c8.8,0,16-7.2,16-16V176
		C449.8,167.2,442.6,160,433.8,160z M199.4,278.9c-0.9,32.5-48,33.2-65.6,18.7c-4.2-3.5-4.1-9.1-1.8-12.5c3.3-3.3,7-4.5,11.4-0.9
		c10.5,7.2,37.5,12.5,39.4-5.6c-1.6-18.9-54.9-7.5-50.9-43.9c2.9-24.8,40.4-29.3,58.1-15.7c8.7,7-0.5,18.2-8.2,12.5
		c-9.5-6-31-8.8-33.6,4.5C144.7,256.9,200.4,244.9,199.4,278.9z M301.3,291.8c8.4,7.7-2.6,20.2-11.1,12.2l-4.3-3.4
		c-6.7,4.6-14.4,6.8-24.8,6.8c-22.5,0-48.2-15.5-48.2-47c0-31.5,25.6-47.5,48.2-47.5c23.8,0,47.1,16,47.1,47.5
		c0,12.2-3.1,21.1-8.8,29.1L301.3,291.8z M377.4,304H335c-4.5,0-8.1-3.2-8.1-7.8v-73.1h0v0c0-4.2,3.6-7.8,8.1-7.8
		c4.1,0,7.6,3.6,7.6,7.8v64.1h34.8C389.9,287.2,390.2,304,377.4,304z"/>
</g>
</svg>
